Simulation
nRows=40
nColumns=15
endheader
time  TH_x TH_y TH_z SC_y  SC_z  SC_x  AC_y  AC_z  AC_x  GH_y  GH_z  GH_yy  EL_x  PS_y
0.0  0.000000  0.000000  0.000000  -40.97484877243665  6.2938575664631875  5.290427962726946  46.899472435100506  0.889237841516903  1.1592010958831025  -30.292040685912905  1.3094831117891625  52.842599592033686  22.6064459577846  120.000000
0.05745  0.000000  0.000000  0.000000  -40.38974533395504  5.3705741972066425  3.3034907705424637  46.42014194690098  1.979908665931825  1.3005803281488078  -21.508105939519094  3.198521724092493  43.906240399078996  22.034273993268346  120.000000
0.1149  0.000000  0.000000  0.000000  -39.843683653810324  4.361044440884896  1.471553020552258  46.03109740774692  2.924978478963364  1.458460173753891  -17.270745593694574  5.0083929562213045  39.48133827098561  21.6388234800544  120.000000
0.17235  0.000000  0.000000  0.000000  -39.395789594211166  3.378164363649353  -0.184565421795224  45.73892525762275  3.7082155713952045  1.6285877996500848  -13.716240669728501  6.7854859227395945  35.67277772364883  21.499607050004915  120.000000
0.2298  0.000000  0.000000  0.000000  -39.10081844857348  2.484675782301938  -1.6519260493667778  45.53047955645236  4.348370406496288  1.8301787293455567  -10.610158227490828  8.628195615306211  32.21218503901549  21.621749855140628  120.000000
0.28725  0.000000  0.000000  0.000000  -38.97976328974231  1.7360797449527616  -2.917657407747911  45.401428491234725  4.893946028980101  2.0739946328610923  -8.047852428475743  10.639720327524584  29.162598335186107  21.945793164992978  120.000000
0.3447  0.000000  0.000000  0.000000  -39.05548840607243  1.1826937701401694  -3.957174613715448  45.3422636125449  5.388355570487258  2.3578879149365015  -6.080056976667453  12.899227822304228  26.542283699212916  22.37265973316795  120.000000
0.40215  0.000000  0.000000  0.000000  -39.35022194853202  0.8619400430942967  -4.732915684693882  45.34371726550964  5.852475806414063  2.672869248862827  -4.649142038285796  15.45071806008322  24.266610109537428  22.792769240047352  120.000000
0.4596  0.000000  0.000000  0.000000  -39.879000432989535  0.8099675482685657  -5.207133842260308  45.4036601907766  6.282090269911371  3.010294775134968  -3.6335296235999004  18.29478852980326  22.19648447628739  23.114013841179094  120.000000
0.51705  0.000000  0.000000  0.000000  -40.63154883854021  1.0571799628312157  -5.368382930656113  45.51969228276962  6.677446667814165  3.3879924748180827  -2.934755346143505  21.38361645704397  20.229292969289585  23.277227072717928  120.000000
0.5745  0.000000  0.000000  0.000000  -41.56649449600862  1.618992925740112  -5.230338418685638  45.69383064380546  7.060140344514984  3.845768417742539  -2.4759170858848876  24.622446522501843  18.296504425376916  23.263323858982332  120.000000
0.63195  0.000000  0.000000  0.000000  -42.610987717910476  2.483992462445711  -4.7931887031598395  45.93873139662139  7.4572668279288  4.412921667974621  -2.2001272565203855  27.87408662252853  16.36033646864484  23.08669833749099  120.000000
0.6894  0.000000  0.000000  0.000000  -43.687061506173855  3.6076145361469947  -4.045515759614647  46.2599613377677  7.899758388329509  5.11122680330358  -2.0689787965551485  30.976364525398225  14.404062590419707  22.77703055703202  120.000000
0.74685  0.000000  0.000000  0.000000  -44.7350958850696  4.929548145630312  -2.9775690202343266  46.656155588498635  8.418140094687699  5.938667288979838  -2.0610130264674424  33.77858115003108  12.426837130948053  22.367371698491667  120.000000
0.8043  0.000000  0.000000  0.000000  -45.73164535112078  6.384861628095592  -1.5845498525557873  47.11519301753518  9.031093265673823  6.876101832973845  -2.15497723722491  36.17884289911864  10.427263411739519  21.889471490514538  120.000000
0.86175  0.000000  0.000000  0.000000  -46.68025073092981  7.905722852714214  0.13295388505557618  47.61787936159909  9.735883408923591  7.899949486532308  -2.3201103768794105  38.1409494070775  8.404512235171392  21.374891163363667  120.000000
0.9192  0.000000  0.000000  0.000000  -47.60116740541583  9.430201295436692  2.1619241319441547  48.14224821419681  10.508744538167909  8.984810587826066  -2.517781105166665  39.691006071400906  6.371126491351591  20.855884527392178  120.000000
0.97665  0.000000  0.000000  0.000000  -48.51653105887791  10.89816880731556  4.471146700888833  48.65828823499807  11.312578387481523  10.108002546297222  -2.722115249566276  40.90182400772163  4.37788990215949  20.357411101203777  120.000000
1.0341  0.000000  0.000000  0.000000  -49.44106474892453  12.256471360618875  7.005934926290637  49.13795394478314  12.103971585367647  11.245620301997079  -2.9222448877326084  41.86914255351074  2.5151892943335996  19.893408622352602  120.000000
1.09155  0.000000  0.000000  0.000000  -50.37499135893808  13.457682313240456  9.688714525323222  49.561145744488975  12.838333024609566  12.374344429886964  -3.1213146095436057  42.69384982329448  0.8984845928898004  19.465325728238888  120.000000
1.149  0.000000  0.000000  0.000000  -51.305145075144985  14.466096034178824  12.424082606388952  49.92245022371778  13.475314042816175  13.468593253480147  -3.325006175591122  43.46345645652615  -0.3672040937802891  19.06761203520973  120.000000
1.20645  0.000000  0.000000  0.000000  -52.20872167355073  15.263198434918014  15.105398279114471  50.23293635841027  13.985140324193996  14.497738401657736  -3.532478686161749  44.24201027281849  -1.2239351958119453  18.694117795478807  120.000000
1.2639  0.000000  0.000000  0.000000  -53.057137694340085  15.84685576230446  17.626332466124552  50.51225389518506  14.354050872149813  15.427369934141417  -3.731918266314327  45.05927574823973  -1.6854791492666437  18.342657152875137  120.000000
1.32135  0.000000  0.000000  0.000000  -53.818104787712784  16.23169130679447  19.887701002382336  50.7817810206025  14.58748074284  16.219081718589376  -3.902563069939857  45.90822837873074  -1.838126026196362  18.01667993619561  120.000000
1.3788  0.000000  0.000000  0.000000  -54.45649060930283  16.442450575308676  21.80321921298739  51.05184395475746  14.706389735912362  16.836640319722047  -4.022425386876196  46.74867251535843  -1.8168240285426491  17.723687578950504  120.000000
1.43625  0.000000  0.000000  0.000000  -54.93627948414478  16.510326568968658  23.29908333848811  51.318409743919  14.73954262156076  17.248833472112874  -4.075383679295005  47.517642572904606  -1.7697895231614031  17.472920782781017  120.000000
1.4937  0.000000  0.000000  0.000000  -55.22366451594765  16.46984336733459  24.311846321105858  51.56574678687771  14.71246998799243  17.434058965453957  -4.053660890707741  48.14405670430431  -1.8280288143441248  17.272984466005017  120.000000
1.55115  0.000000  0.000000  0.000000  -55.293183001755345  16.354655542943018  24.786433429589607  51.77624084698768  14.638857008833961  17.382350708345694  -3.957269042462676  48.56352914021559  -2.08479802432663  17.13089641808226  120.000000
1.6086  0.000000  0.000000  0.000000  -55.133495318702025  16.192748974281578  24.67710794666325  51.93999323525673  14.515635127599534  17.097449650826864  -3.792190494150692  48.732427863698796  -2.588318002325651  17.05063848924535  120.000000
1.66605  0.000000  0.000000  0.000000  -54.74949970948595  15.996351937462602  23.95458089924481  52.056769871322814  14.325837538622132  16.599590151562037  -3.565358409280241  48.63604229869861  -3.343375791424323  17.0321911164904  120.000000
1.7235  0.000000  0.000000  0.000000  -54.15879861955735  15.752597986670082  22.61693481393524  52.129336706808864  14.047598475869263  15.926742486917961  -3.2781486770723576  48.288888144114985  -4.319797680551416  17.06867388375707  120.000000
1.78095  0.000000  0.000000  0.000000  -53.388863609056756  15.420912342682033  20.700025485747396  52.15649642235189  13.665065555981696  15.131296870692413  -2.923756594210244  47.72959262761502  -5.461202069511377  17.144204736355558  120.000000
1.8384  0.000000  0.000000  0.000000  -52.476949049961405  14.942930083812794  18.281170231504653  52.12979353451765  13.177102979589968  14.26920837510865  -2.492674202321737  47.00803205643334  -6.694399980403966  17.234534296131457  120.000000
1.89585  0.000000  0.000000  0.000000  -51.47253768282746  14.26050364116382  15.475007067203077  52.033612025734946  12.600241770497144  13.388412971935866  -1.9816864372101655  46.16863761711548  -7.938464033955849  17.31271400758046  120.000000
1.9533  0.000000  0.000000  0.000000  -50.43422267616499  13.33675100270362  12.421326712304591  51.848332024738426  11.967660680768539  12.520181921978548  -1.4007211385013631  45.23547574420791  -9.118771709077041  17.356181249623404  120.000000
2.01075  0.000000  0.000000  0.000000  -49.42137858481644  12.169049739416943  9.270072051302032  51.55298354833113  11.325025005127532  11.67809110968619  -0.772846351474929  44.20286617712951  -10.18117242929474  17.35359901168675  120.000000
2.0682  0.000000  0.000000  0.000000  -48.48127169499179  10.793262936630951  6.164570559754898  51.13048377545042  10.725739667998686  10.860903560579683  -0.12898923394446987  43.03388854927291  -11.103346726888956  17.304923108266607  120.000000
2.1256500000000003  0.000000  0.000000  0.000000  -47.63730126314061  9.276443538788902  3.2283184820561464  50.57328199805215  10.22441657609062  10.059094179302358  0.5011297020988479  41.665004773872646  -11.892953325576041  17.21560831583807  120.000000
2.1831  0.000000  0.000000  0.000000  -46.882560780918666  7.702337019439444  0.5562998247143919  49.88867949778862  9.868578144354819  9.264608885473312  1.0977609808402142  40.01806094469511  -12.572098043069923  17.087505855979696  120.000000
2.24055  0.000000  0.000000  0.000000  -46.181000777972656  6.157730152027908  -1.7889024834029381  49.10140994372558  9.68959716181129  8.477121599945631  1.6549879600044022  38.018791508806444  -13.149791453578393  16.91144910146438  120.000000
